HIERARCHY
ROOT hip
{
  OFFSET 3.54765 80.8754 241.78
  CHANNELS 6 Xposition Yposition Zposition Zrotation Xrotation Yrotation
  JOINT abdomen
  {
    OFFSET 0 20.6881 -0.73152
    CHANNELS 3 Zrotation Xrotation Yrotation
    JOINT chest
    {
      OFFSET 0 11.7043 -0.48768
      CHANNELS 3 Zrotation Xrotation Yrotation
      JOINT neck
      {
        OFFSET 0 22.1894 -2.19456
        CHANNELS 3 Zrotation Xrotation Yrotation
        JOINT head
        {
          OFFSET -0.24384 7.07133 1.2192
          CHANNELS 3 Zrotation Xrotation Yrotation
          JOINT leftEye
          {
            OFFSET 4.14528 8.04674 8.04672
            CHANNELS 3 Zrotation Xrotation Yrotation
            End Site
            {
              OFFSET 1 0 0
            }
          }
          JOINT rightEye
          {
            OFFSET -3.6576 8.04674 8.04672
            CHANNELS 3 Zrotation Xrotation Yrotation
            End Site
            {
              OFFSET 1 0 0
            }
          }
        }
      }
      JOINT rCollar
      {
        OFFSET -2.68224 19.2634 -4.8768
        CHANNELS 3 Zrotation Xrotation Yrotation
        JOINT rShldr
        {
          OFFSET -8.77824 -1.95073 1.46304
          CHANNELS 3 Zrotation Xrotation Yrotation
          JOINT rForeArm
          {
            OFFSET -28.1742 -1.7115 0.48768
            CHANNELS 3 Zrotation Xrotation Yrotation
            JOINT rHand
            {
              OFFSET -22.5879 0.773209 7.07136
              CHANNELS 3 Zrotation Xrotation Yrotation
              JOINT rThumb1
              {
                OFFSET -1.2192 -0.487915 3.41376
                CHANNELS 3 Zrotation Xrotation Yrotation
                JOINT rThumb2
                {
                  OFFSET -3.37035 -0.52449 3.41376
                  CHANNELS 3 Zrotation Xrotation Yrotation
                  End Site
                  {
                    OFFSET -1.78271 -1.18214 1.43049
                  }
                }
              }
              JOINT rIndex1
              {
                OFFSET -7.75947 0.938293 5.60832
                CHANNELS 3 Zrotation Xrotation Yrotation
                JOINT rIndex2
                {
                  OFFSET -2.54057 -0.884171 1.56538
                  CHANNELS 3 Zrotation Xrotation Yrotation
                  End Site
                  {
                    OFFSET -1.62519 -0.234802 1.16502
                  }
                }
              }
              JOINT rMid1
              {
                OFFSET -8.24714 1.18213 3.41376
                CHANNELS 3 Zrotation Xrotation Yrotation
                JOINT rMid2
                {
                  OFFSET -3.10165 -0.590103 1.0647
                  CHANNELS 3 Zrotation Xrotation Yrotation
                  End Site
                  {
                    OFFSET -2.48547 -0.328903 0.83742
                  }
                }
              }
              JOINT rRing1
              {
                OFFSET -8.82822 0.546677 1.51678
                CHANNELS 3 Zrotation Xrotation Yrotation
                JOINT rRing2
                {
                  OFFSET -2.60934 -0.819778 -0.0198488
                  CHANNELS 3 Zrotation Xrotation Yrotation
                  End Site
                  {
                    OFFSET -2.33842 -0.294052 0.168128
                  }
                }
              }
              JOINT rPinky1
              {
                OFFSET -8.27202 -0.0477905 -0.4584
                CHANNELS 3 Zrotation Xrotation Yrotation
                JOINT rPinky2
                {
                  OFFSET -1.82734 -0.647385 -0.700984
                  CHANNELS 3 Zrotation Xrotation Yrotation
                  End Site
                  {
                    OFFSET -1.69225 -0.51767 -0.607171
                  }
                }
              }
            }
          }
        }
      }
      JOINT lCollar
      {
        OFFSET 2.68224 19.2634 -4.8768
        CHANNELS 3 Zrotation Xrotation Yrotation
        JOINT lShldr
        {
          OFFSET 8.77824 -1.95073 1.46304
          CHANNELS 3 Zrotation Xrotation Yrotation
          JOINT lForeArm
          {
            OFFSET 28.1742 -1.7115 0.48768
            CHANNELS 3 Zrotation Xrotation Yrotation
            JOINT lHand
            {
              OFFSET 22.5879 0.773209 7.07136
              CHANNELS 3 Zrotation Xrotation Yrotation
              JOINT lThumb1
              {
                OFFSET 1.2192 -0.487915 3.41376
                CHANNELS 3 Zrotation Xrotation Yrotation
                JOINT lThumb2
                {
                  OFFSET 3.37035 -0.52449 3.41376
                  CHANNELS 3 Zrotation Xrotation Yrotation
                  End Site
                  {
                    OFFSET 1.78271 -1.18214 1.43049
                  }
                }
              }
              JOINT lIndex1
              {
                OFFSET 7.75947 0.938293 5.60832
                CHANNELS 3 Zrotation Xrotation Yrotation
                JOINT lIndex2
                {
                  OFFSET 2.54057 -0.884171 1.56538
                  CHANNELS 3 Zrotation Xrotation Yrotation
                  End Site
                  {
                    OFFSET 1.62519 -0.234802 1.16502
                  }
                }
              }
              JOINT lMid1
              {
                OFFSET 8.24714 1.18213 3.41376
                CHANNELS 3 Zrotation Xrotation Yrotation
                JOINT lMid2
                {
                  OFFSET 3.10165 -0.590103 1.0647
                  CHANNELS 3 Zrotation Xrotation Yrotation
                  End Site
                  {
                    OFFSET 2.48547 -0.328903 0.83742
                  }
                }
              }
              JOINT lRing1
              {
                OFFSET 8.82822 0.546677 1.51678
                CHANNELS 3 Zrotation Xrotation Yrotation
                JOINT lRing2
                {
                  OFFSET 2.60934 -0.819778 -0.0198488
                  CHANNELS 3 Zrotation Xrotation Yrotation
                  End Site
                  {
                    OFFSET 2.33842 -0.294052 0.168128
                  }
                }
              }
              JOINT lPinky1
              {
                OFFSET 8.27202 -0.0477905 -0.4584
                CHANNELS 3 Zrotation Xrotation Yrotation
                JOINT lPinky2
                {
                  OFFSET 1.82734 -0.647385 -0.700984
                  CHANNELS 3 Zrotation Xrotation Yrotation
                  End Site
                  {
                    OFFSET 1.69225 -0.51767 -0.607171
                  }
                }
              }
            }
          }
        }
      }
    }
  }
  JOINT rButtock
  {
    OFFSET -8.77824 4.35084 1.2192
    CHANNELS 3 Zrotation Xrotation Yrotation
    JOINT rThigh
    {
      OFFSET 0 -1.70687 -2.19456
      CHANNELS 3 Zrotation Xrotation Yrotation
      JOINT rShin
      {
        OFFSET 0 -36.8199 0.73152
        CHANNELS 3 Zrotation Xrotation Yrotation
        JOINT rFoot
        {
          OFFSET 0.73152 -45.1104 -5.12064
          CHANNELS 3 Zrotation Xrotation Yrotation
          End Site
          {
            OFFSET -1.1221 -3.69964 12.103
          }
        }
      }
    }
  }
  JOINT lButtock
  {
    OFFSET 8.77824 4.35084 1.2192
    CHANNELS 3 Zrotation Xrotation Yrotation
    JOINT lThigh
    {
      OFFSET 0 -1.70687 -2.19456
      CHANNELS 3 Zrotation Xrotation Yrotation
      JOINT lShin
      {
        OFFSET 0 -36.8199 0.73152
        CHANNELS 3 Zrotation Xrotation Yrotation
        JOINT lFoot
        {
          OFFSET -0.73152 -45.1104 -5.12064
          CHANNELS 3 Zrotation Xrotation Yrotation
          End Site
          {
            OFFSET 1.1221 -3.69964 12.103
          }
        }
      }
    }
  }
}
MOTION
Frames:	8
Frame Time:	0.00833333
0.249913 81.7861 -12.6431 6.25731 16.7832 -3.08722 -9.14546 -19.251 -1.39477 0.531173 2.9232 -0.090369 -0.555894 9.7544 -0.259146 2.67916 -18.9491 -0.00503004 -0 0 0 -0 0 0 -1.84039e-014 9.59339e-013 9.84481e-014 85.3011 24.5525 -5.29756 -15.4469 -8.18336 28.5136 -0.191787 -12.3814 -1.76797 -1.10511e-010 4.40783e-009 -4.53878e-009 -1.68426e-010 7.59283e-009 -7.84857e-009 -1.10508e-010 4.40783e-009 -4.53878e-009 7.73091 5.47488 0.417314 -1.1051e-010 4.40783e-009 -4.53877e-009 2.90554 0.965183 0.102902 -1.10498e-010 4.40783e-009 -4.53878e-009 10.2786 0.731801 0.0259123 -1.10506e-010 4.40783e-009 -4.53877e-009 2.22167 -0.733487 -0.20892 -1.83724e-014 9.59331e-013 9.8299e-014 -81.5423 -7.39726 8.39889 7.31111 -2.66067 -12.8467 0.683354 22.8039 -3.38753 -4.08579e-009 1.19486e-009 9.6291e-009 -6.8811e-009 2.10097e-009 1.66993e-008 -4.08579e-009 1.19486e-009 9.62911e-009 -7.73091 5.47488 -0.417314 -4.08579e-009 1.19486e-009 9.62909e-009 -2.90554 0.965183 -0.102902 -4.0858e-009 1.19486e-009 9.6291e-009 -10.2786 0.731801 -0.0259123 -4.08579e-009 1.19487e-009 9.62909e-009 -2.22167 -0.733487 0.20892 -2.03217e-016 0 -3.88251e-019 -10.7888 -45.8477 -9.1917 -2.81286 73.8371 3.14629 -0.0289552 1.21197 2.47729 2.03217e-016 0 3.88251e-019 -8.67293 -39.5855 -0.117419 0.335424 40.6333 -0.451425 0.933127 -15.6528 1.49716 
0.252258 81.8026 -11.4778 6.09883 16.6472 -3.10085 -8.79509 -19.1542 -1.53896 0.574692 2.92165 -0.139453 -0.584319 9.67978 -0.180473 2.50708 -18.6923 0.119702 -0 0 0 -0 0 0 -2.17872e-014 8.01145e-013 7.27257e-014 85.5552 23.3822 -6.05123 -14.5771 -7.43805 26.712 -0.15101 -10.9889 -1.56311 4.78223e-011 3.69283e-009 -4.33659e-009 1.02781e-010 6.35951e-009 -7.49835e-009 4.78252e-011 3.69283e-009 -4.3366e-009 7.73091 5.47488 0.417314 4.78226e-011 3.69283e-009 -4.33658e-009 2.90554 0.965183 0.102902 4.78336e-011 3.69283e-009 -4.33659e-009 10.2786 0.731801 0.0259123 4.78248e-011 3.69283e-009 -4.33658e-009 2.22167 -0.733487 -0.20892 -2.17512e-014 8.01137e-013 7.25677e-014 -81.8974 -4.11954 6.81429 7.72479 -2.8712 -13.5966 0.513439 20.0458 -2.93819 -3.37705e-009 1.26446e-009 8.41993e-009 -5.68676e-009 2.22106e-009 1.45986e-008 -3.37705e-009 1.26447e-009 8.41994e-009 -7.73091 5.47488 -0.417314 -3.37704e-009 1.26447e-009 8.41993e-009 -2.90554 0.965183 -0.102902 -3.37706e-009 1.26447e-009 8.41993e-009 -10.2786 0.731801 -0.0259123 -3.37705e-009 1.26447e-009 8.41993e-009 -2.22167 -0.733487 0.20892 -2.03217e-016 0 -3.88251e-019 -10.5564 -46.9526 -9.33086 -2.61805 72.9943 2.9747 -0.0496234 -0.158808 2.07388 2.03217e-016 0 3.88251e-019 -8.44991 -38.3962 0.0744011 0.319491 40.3744 -0.509879 0.983827 -16.3872 1.52667 
0.231469 81.8076 -10.2316 5.96937 16.5024 -3.11579 -8.48743 -18.9916 -1.70636 0.64511 2.89232 -0.194144 -0.597734 9.61163 -0.0956236 2.28559 -18.5201 0.249549 -0 0 0 -0 0 0 -2.55627e-014 5.48959e-013 3.65267e-014 85.7074 22.0221 -6.72406 -13.6457 -6.68635 24.8179 -0.11653 -9.37607 -1.32888 2.71784e-010 2.50395e-009 -3.63411e-009 4.83019e-010 4.31189e-009 -6.28297e-009 2.71789e-010 2.50395e-009 -3.63412e-009 7.73091 5.47488 0.417314 2.71784e-010 2.50395e-009 -3.6341e-009 2.90554 0.965183 0.102902 2.71792e-010 2.50395e-009 -3.63411e-009 10.2786 0.731801 0.0259123 2.71783e-010 2.50395e-009 -3.6341e-009 2.22167 -0.733487 -0.20892 -2.55266e-014 5.48951e-013 3.63496e-014 -82.0729 -0.773178 5.25896 8.19165 -3.11224 -14.454 0.364787 17.1371 -2.48102 -2.19339e-009 1.33653e-009 6.24836e-009 -3.68838e-009 2.33888e-009 1.08283e-008 -2.19339e-009 1.33652e-009 6.24837e-009 -7.73091 5.47488 -0.417314 -2.19338e-009 1.33652e-009 6.24835e-009 -2.90554 0.965183 -0.102902 -2.19339e-009 1.33652e-009 6.24836e-009 -10.2786 0.731801 -0.0259123 -2.19338e-009 1.33652e-009 6.24835e-009 -2.22167 -0.733487 0.20892 -2.03217e-016 0 -3.88251e-019 -10.3159 -48.0302 -9.44136 -2.41093 71.997 2.7921 -0.113184 -1.51197 1.55498 2.03217e-016 0 3.88251e-019 -8.26466 -37.2404 0.254025 0.304635 40.1363 -0.569399 1.01915 -17.1315 1.51472 
0.274476 81.815 -8.91134 5.8226 16.3812 -3.08874 -8.17832 -18.8252 -1.89631 0.724402 2.83811 -0.255027 -0.600295 9.57674 -0.0127202 2.04949 -18.4205 0.373459 -0 0 0 -0 0 0 -3.20705e-014 2.74503e-013 2.32795e-015 85.7831 20.3828 -7.40358 -12.6914 -5.95674 22.9315 -0.0786907 -7.45325 -1.0529 4.90746e-010 1.2374e-009 -2.64208e-009 8.5443e-010 2.13105e-009 -4.56732e-009 4.90753e-010 1.2374e-009 -2.64208e-009 7.73091 5.47488 0.417314 4.90745e-010 1.2374e-009 -2.64207e-009 2.90554 0.965183 0.102902 4.90751e-010 1.2374e-009 -2.64208e-009 10.2786 0.731801 0.0259123 4.9074e-010 1.2374e-009 -2.64207e-009 2.22167 -0.733487 -0.20892 -3.20366e-014 2.74497e-013 2.13344e-015 -82.0409 2.51842 3.76175 8.70397 -3.3874 -15.3984 0.248869 14.2473 -2.04264 -9.19893e-010 1.33217e-009 3.83746e-009 -1.53637e-009 2.32215e-009 6.64398e-009 -9.19898e-010 1.33216e-009 3.83747e-009 -7.73091 5.47488 -0.417314 -9.19892e-010 1.33216e-009 3.83745e-009 -2.90554 0.965183 -0.102902 -9.19901e-010 1.33216e-009 3.83746e-009 -10.2786 0.731801 -0.0259123 -9.19889e-010 1.33216e-009 3.83745e-009 -2.22167 -0.733487 0.20892 -2.03217e-016 0 -3.88251e-019 -10.0483 -49.0455 -9.55609 -2.19229 70.7963 2.59759 -0.219798 -2.79479 0.935931 2.03217e-016 0 3.88251e-019 -8.04102 -36.1097 0.484271 0.290519 39.8867 -0.626741 1.02694 -17.8763 1.43609 
0.278979 81.8452 -7.64243 5.61246 16.3158 -2.97644 -7.82441 -18.7171 -2.10833 0.794537 2.76193 -0.322684 -0.596332 9.60189 0.0601426 1.83352 -18.3815 0.480366 -0 0 0 -0 0 0 -4.36503e-014 4.95001e-014 -1.73937e-014 85.7934 18.375 -8.17466 -11.7627 -5.28352 21.1514 -0.0323977 -5.13094 -0.723059 6.34078e-010 2.89394e-010 -1.57124e-009 1.09916e-009 4.98043e-010 -2.71629e-009 6.34085e-010 2.89393e-010 -1.57124e-009 7.73091 5.47488 0.417314 6.34076e-010 2.8939e-010 -1.57123e-009 2.90554 0.965183 0.102902 6.3408e-010 2.89391e-010 -1.57123e-009 10.2786 0.731801 0.0259123 6.34069e-010 2.89396e-010 -1.57122e-009 2.22167 -0.733487 -0.20892 -4.3619e-014 4.94954e-014 -1.75924e-014 -81.7935 5.63092 2.35084 9.25387 -3.70016 -16.4096 0.166373 11.5469 -1.64538 5.83473e-011 1.17251e-009 1.91031e-009 1.18851e-010 2.03857e-009 3.30114e-009 5.83417e-011 1.1725e-009 1.91033e-009 -7.73091 5.47488 -0.417314 5.83473e-011 1.1725e-009 1.91031e-009 -2.90554 0.965183 -0.102902 5.83383e-011 1.1725e-009 1.91031e-009 -10.2786 0.731801 -0.0259123 5.83519e-011 1.1725e-009 1.9103e-009 -2.22167 -0.733487 0.20892 -2.03217e-016 0 -3.88251e-019 -9.73801 -49.9634 -9.70991 -1.96569 69.3434 2.39299 -0.365383 -3.95424 0.231935 2.03217e-016 0 3.88251e-019 -7.70897 -34.9951 0.824349 0.276713 39.5932 -0.678605 0.993674 -18.6119 1.26508 
0.239337 81.9109 -6.41246 5.30396 16.3365 -2.75015 -7.39264 -18.6883 -2.35047 0.861756 2.60533 -0.399836 -0.60101 9.73092 0.122336 1.6517 -18.4092 0.572793 -0 0 0 -0 0 0 -6.71216e-014 -1.26642e-013 -1.47559e-014 85.7205 16.1729 -9.09393 -10.8795 -4.68791 19.4781 -0.0125719 -2.52501 -0.350261 6.70605e-010 -2.517e-010 -1.80833e-010 1.16636e-009 -4.35598e-010 -3.14147e-010 6.70611e-010 -2.51703e-010 -1.80839e-010 7.73091 5.47488 0.417314 6.70604e-010 -2.51704e-010 -1.80826e-010 2.90554 0.965183 0.102902 6.70608e-010 -2.51704e-010 -1.8083e-010 10.2786 0.731801 0.0259123 6.70597e-010 -2.51699e-010 -1.8082e-010 2.22167 -0.733487 -0.20892 -6.70842e-014 -1.26645e-013 -1.4931e-014 -81.3761 8.57648 1.08318 9.85757 -4.06118 -17.5253 0.103084 9.03639 -1.28244 6.75682e-010 7.03712e-010 5.45952e-010 1.16864e-009 1.22222e-009 9.38573e-010 6.75677e-010 7.03705e-010 5.45964e-010 -7.73091 5.47488 -0.417314 6.75683e-010 7.03704e-010 5.45945e-010 -2.90554 0.965183 -0.102902 6.75673e-010 7.03705e-010 5.45949e-010 -10.2786 0.731801 -0.0259123 6.75686e-010 7.03706e-010 5.45935e-010 -2.22167 -0.733487 0.20892 -2.03217e-016 0 -3.88251e-019 -9.35371 -50.8032 -9.92325 -1.73965 67.6271 2.18742 -0.564658 -4.9721 -0.618248 2.03217e-016 0 3.88251e-019 -7.23129 -33.9357 1.30964 0.263712 39.2912 -0.72639 0.909941 -19.38 0.984568 
0.228672 81.9357 -5.17649 4.92843 16.4186 -2.43844 -6.91411 -18.7041 -2.62048 0.931543 2.38651 -0.485301 -0.607747 9.93732 0.177735 1.48462 -18.507 0.655044 -0 0 0 -0 0 0 -9.91713e-014 -2.85602e-013 2.0686e-015 85.5295 13.7632 -10.1056 -10.0288 -4.15834 17.8634 -0.0291224 0.363281 0.0644278 6.4211e-010 -5.91432e-010 1.54255e-009 1.12537e-009 -1.02308e-009 2.6627e-009 6.42114e-010 -5.91437e-010 1.54254e-009 7.73091 5.47488 0.417314 6.4211e-010 -5.91437e-010 1.54255e-009 2.90554 0.965183 0.102902 6.42115e-010 -5.91437e-010 1.54255e-009 10.2786 0.731801 0.0259123 6.42104e-010 -5.91434e-010 1.54256e-009 2.22167 -0.733487 -0.20892 -9.9123e-014 -2.85602e-013 1.93504e-015 -80.8193 11.3963 -0.0913302 10.5058 -4.46186 -18.7431 0.0530532 6.64077 -0.938696 1.12514e-009 1.21056e-011 -6.03341e-010 1.93827e-009 2.055e-011 -1.048e-009 1.12514e-009 1.21044e-011 -6.03329e-010 -7.73091 5.47488 -0.417314 1.12515e-009 1.21038e-011 -6.03348e-010 -2.90554 0.965183 -0.102902 1.12514e-009 1.21044e-011 -6.03343e-010 -10.2786 0.731801 -0.0259123 1.12515e-009 1.21036e-011 -6.03358e-010 -2.22167 -0.733487 0.20892 -2.03217e-016 0 -3.88251e-019 -8.91524 -51.5737 -10.1749 -1.52275 65.6726 1.98983 -0.819046 -5.87642 -1.60278 2.03217e-016 0 3.88251e-019 -6.66198 -32.9208 1.89667 0.251578 38.9834 -0.77113 0.777693 -20.1703 0.609209 
0.198709 81.9191 -3.94429 4.53968 16.5116 -2.08412 -6.44217 -18.7425 -2.90271 0.985264 2.22331 -0.57383 -0.588045 10.1423 0.224968 1.31663 -18.6586 0.718627 -0 0 0 -0 0 0 -1.26941e-013 -4.0229e-013 2.14742e-014 85.1818 10.781 -11.1321 -9.21556 -3.68263 16.3332 -0.0544516 3.79519 0.549002 5.87398e-010 -7.74472e-010 3.04716e-009 1.03858e-009 -1.34043e-009 5.26118e-009 5.87401e-010 -7.74479e-010 3.04714e-009 7.73091 5.47488 0.417314 5.87399e-010 -7.74477e-010 3.04715e-009 2.90554 0.965183 0.102902 5.87406e-010 -7.74478e-010 3.04715e-009 10.2786 0.731801 0.0259123 5.87395e-010 -7.74475e-010 3.04716e-009 2.22167 -0.733487 -0.20892 -1.26894e-013 -4.02288e-013 2.13744e-014 -80.0912 14.0102 -1.30331 11.1553 -4.87783 -19.9818 0.0204571 4.41776 -0.622116 1.40967e-009 -6.20898e-010 -1.45459e-009 2.42826e-009 -1.07873e-009 -2.51762e-009 1.40967e-009 -6.20894e-010 -1.45458e-009 -7.73091 5.47488 -0.417314 1.40968e-009 -6.20894e-010 -1.4546e-009 -2.90554 0.965183 -0.102902 1.40967e-009 -6.20894e-010 -1.45459e-009 -10.2786 0.731801 -0.0259123 1.40968e-009 -6.20896e-010 -1.45461e-009 -2.22167 -0.733487 0.20892 -2.03217e-016 0 -3.88251e-019 -8.48267 -52.2235 -10.4357 -1.31908 63.4861 1.80231 -1.09463 -6.68379 -2.596 2.03217e-016 0 3.88251e-019 -6.07069 -31.8672 2.52497 0.239035 38.5879 -0.808875 0.602074 -20.8958 0.16134 
